<svg id="_-" data-name="-" xmlns="http://www.w3.org/2000/svg" viewBox="0 0 172.35 84.51"><defs><style>.cls-1{fill:none;stroke:#000;stroke-miterlimit:10;stroke-width:7px;}</style></defs><title>The Great Wave</title><circle class="cls-1" cx="42.25" cy="42.25" r="38.75"/><path class="cls-1" d="M63.57,74.63a37.53,37.53,0,0,1-5.51.41c-19.7,0-35.67-15.28-35.67-34.13a32.88,32.88,0,0,1,5.16-17.69"/><path class="cls-1" d="M71.73,67.42q-1.21.12-2.46,0.12A25.4,25.4,0,0,1,48.22,27.93"/><path class="cls-1" d="M3.78,37.59c2-6,8.69-11.51,17.47-13.56a27.63,27.63,0,0,1,15.59.71c4.47,1.59,6.85,2.55,9.81,3,11.93,1.81,22.66-3.27,24.41-11.41"/><path d="M98.78,28.09H92.22V9.6H88.59V3.77h14V9.6H98.78V28.09Z"/><path d="M119.87,28.09H113.3V18.31h-3.13v9.78H103.6V3.77h6.57v8.6h3.13V3.77h6.57V28.09Z"/><path d="M121.34,28.09V3.77h12.2V9.49H127.9V13H133v5.5H127.9v3.72h5.64v5.84h-12.2Z"/><path d="M98.75,40.4h9.17v1q0,7-2.09,10.11a7.63,7.63,0,0,1-6.76,3.37,8.17,8.17,0,0,1-6.9-3.31q-2.49-3.34-2.49-9.17t2.5-9.31A8,8,0,0,1,99,29.71q5.76,0,8.36,6L101,38.05a3.7,3.7,0,0,0-.65-1.82,1.56,1.56,0,0,0-1.28-.67q-2.71,0-2.71,7.45a12.85,12.85,0,0,0,.6,4.6A2,2,0,0,0,98.89,49a1.82,1.82,0,0,0,.94-0.25,2.14,2.14,0,0,0,.72-0.71A3.78,3.78,0,0,0,101,47a6,6,0,0,0,.17-1.46H98.75V40.4Z"/><path d="M126.72,54.46h-7.1l-3.24-8.66q0-.22-0.17-0.58l-0.29-.87L116,46v8.5h-6.54V30.15h6.72q4.44,0,6.65,1.75a7.67,7.67,0,0,1,2.8,6.36,6.11,6.11,0,0,1-3.76,6.09ZM116,41.41h0.44a2.4,2.4,0,0,0,1.89-.87,3.23,3.23,0,0,0,.76-2.2q0-2.72-2.85-2.72H116v5.8Z"/><path d="M128.25,54.46V30.15h12.2v5.72h-5.64v3.54h5.06v5.5h-5.06v3.72h5.64v5.84h-12.2Z"/><path d="M160.12,54.46h-6.79l-0.49-3.09h-4.43l-0.54,3.09H141.1l5.84-24.31h8Zm-8-8.3-0.43-2.83a2.75,2.75,0,0,1-.06-0.43q0-.35-0.33-2.74,0-.27-0.08-0.73t-0.13-1.17l-0.2-2.3q0,0.33-.09.74l-0.12.9q-0.11,1-.16,1.35t-0.06.46L150,42.35l-0.66,3.81h2.77Z"/><path d="M168.58,54.46H162V36h-3.62V30.15h14V36h-3.76V54.46Z"/><path d="M112.43,80.84H106.1l-1.51-8.52q-0.44-2.47-.66-4.28-0.11-.9-0.19-1.5t-0.11-.91q-0.08.65-.24,2.41-0.08.9-.19,1.89T102.94,72l-1.24,8.82H95.3L89.88,56.52h6.49l1.07,6.69q0.61,4,.85,6.28l0.22,2.22,0.2-1.91q0.33-3.34.85-6.35l1.23-6.94h5.65l1.1,5.84q0.79,4.08,1.37,9.65,0.17-2.5.38-4.44t0.46-3.51l1.2-7.54h6.41Z"/><path d="M133.35,80.84h-6.79l-0.49-3.09h-4.43l-0.54,3.09h-6.79l5.84-24.31h8Zm-8-8.3-0.43-2.83a2.75,2.75,0,0,1-.06-0.43q0-.35-0.33-2.74,0-.27-0.08-0.73t-0.13-1.17l-0.2-2.3q0,0.33-.09.74l-0.12.9q-0.11,1-.16,1.35t-0.06.46l-0.46,2.94-0.66,3.81h2.77Z"/><path d="M142.28,80.84h-6.69L130,56.52h6.9l1.2,6.94q0.68,4,1.09,8.91,0.17-2.19.43-4.09t0.6-3.72l1.56-8h7.13Z"/><path d="M150,80.84V56.52h12.2v5.72h-5.64v3.54h5.06v5.5h-5.06V75h5.64v5.84H150Z"/></svg>