<svg id="_-" data-name="-" xmlns="http://www.w3.org/2000/svg" viewBox="0 0 84.51 84.51"><defs><style>.cls-1{fill:none;stroke:#fff;stroke-miterlimit:10;stroke-width:7px;}</style></defs><title>The Great Wave</title><circle class="cls-1" cx="42.25" cy="42.25" r="38.75"/><path class="cls-1" d="M63.57,74.63a37.53,37.53,0,0,1-5.51.41c-19.7,0-35.67-15.28-35.67-34.13a32.88,32.88,0,0,1,5.16-17.69"/><path class="cls-1" d="M71.73,67.42q-1.21.12-2.46,0.12A25.4,25.4,0,0,1,48.22,27.93"/><path class="cls-1" d="M3.78,37.59c2-6,8.69-11.51,17.47-13.56a27.63,27.63,0,0,1,15.59.71c4.47,1.59,6.85,2.55,9.81,3,11.93,1.81,22.66-3.27,24.41-11.41"/></svg>