<svg xmlns="http://www.w3.org/2000/svg" xmlns:xlink="http://www.w3.org/1999/xlink" viewBox="0 0 172.35 84.51"><defs><style>.cls-1{fill:#eeddc6;}.cls-2,.cls-27,.cls-36,.cls-4{fill:none;}.cls-3{isolation:isolate;}.cls-27,.cls-4{stroke:#fff;}.cls-27,.cls-36,.cls-4{stroke-miterlimit:10;}.cls-4{stroke-width:7px;}.cls-5{clip-path:url(#clip-path);}.cls-6{fill:#d6b99a;}.cls-14,.cls-15,.cls-16,.cls-22,.cls-23,.cls-24,.cls-26,.cls-30,.cls-7{opacity:0.5;}.cls-12,.cls-13,.cls-14,.cls-15,.cls-16,.cls-17,.cls-20,.cls-21,.cls-22,.cls-23,.cls-24,.cls-25,.cls-26,.cls-30,.cls-31,.cls-32,.cls-33,.cls-7,.cls-8{mix-blend-mode:overlay;}.cls-7{fill:url(#radial-gradient);}.cls-8{fill:url(#radial-gradient-2);}.cls-9{clip-path:url(#clip-path-2);}.cls-10{clip-path:url(#clip-path-3);}.cls-11{fill:#3dadcd;}.cls-12{fill:url(#linear-gradient);}.cls-13{fill:url(#linear-gradient-2);}.cls-14{fill:url(#radial-gradient-3);}.cls-15{fill:url(#radial-gradient-4);}.cls-16{fill:url(#radial-gradient-5);}.cls-17,.cls-20,.cls-21,.cls-33{opacity:0.9;}.cls-17{fill:url(#radial-gradient-6);}.cls-18{clip-path:url(#clip-path-4);}.cls-19{fill:#3eaecc;}.cls-20{fill:url(#linear-gradient-3);}.cls-21{fill:url(#linear-gradient-4);}.cls-22{fill:url(#radial-gradient-7);}.cls-23{fill:url(#radial-gradient-8);}.cls-24{fill:url(#radial-gradient-9);}.cls-25{fill:url(#radial-gradient-10);}.cls-26{fill:url(#radial-gradient-11);}.cls-27{stroke-width:2px;mix-blend-mode:multiply;}.cls-28{clip-path:url(#clip-path-5);}.cls-29{fill:#9cd9e8;}.cls-30{fill:url(#radial-gradient-12);}.cls-31{fill:url(#radial-gradient-13);}.cls-32{opacity:0.7;fill:url(#radial-gradient-14);}.cls-33{fill:url(#radial-gradient-15);}.cls-34{clip-path:url(#clip-path-6);}.cls-35{clip-path:url(#clip-path-7);}.cls-36{stroke:#000;stroke-width:7px;}</style><clipPath id="clip-path"><circle class="cls-1" cx="42.25" cy="42.25" r="38.75"/></clipPath><radialGradient id="radial-gradient" cx="417.37" cy="396.77" r="198.84" gradientTransform="translate(-59.02 26.48) scale(0.28 0.11)" gradientUnits="userSpaceOnUse"><stop offset="0"/><stop offset="0.85" stop-opacity="0"/></radialGradient><radialGradient id="radial-gradient-2" cx="48.41" cy="16.83" r="37.75" gradientUnits="userSpaceOnUse"><stop offset="0" stop-color="#fff"/><stop offset="1" stop-color="#fff" stop-opacity="0"/></radialGradient><clipPath id="clip-path-2"><circle class="cls-2" cx="42.25" cy="42.25" r="38.75"/></clipPath><clipPath id="clip-path-3"><path class="cls-2" d="M69.27,67.54a25.4,25.4,0,1,1,7.62-49.63A42.34,42.34,0,1,0,77.1,66.3,25.36,25.36,0,0,1,69.27,67.54Z"/></clipPath><linearGradient id="linear-gradient" x1="271.15" y1="1320.94" x2="311.04" y2="1320.94" gradientTransform="translate(-275.44 -1282.89)" gradientUnits="userSpaceOnUse"><stop offset="0" stop-color="#2b3990"/><stop offset="1" stop-opacity="0"/></linearGradient><linearGradient id="linear-gradient-2" x1="157.39" y1="1565.33" x2="197.27" y2="1565.33" gradientTransform="translate(-196.83 -1488.23) scale(1.36 1)" xlink:href="#linear-gradient"/><radialGradient id="radial-gradient-3" cx="151.86" cy="456.91" r="198.84" gradientTransform="translate(-41.12 -58.62) scale(0.35 0.15)" xlink:href="#radial-gradient"/><radialGradient id="radial-gradient-4" cx="876.7" cy="499.06" r="198.84" gradientTransform="translate(-128.38 -79.58) scale(0.14 0.29)" xlink:href="#radial-gradient"/><radialGradient id="radial-gradient-5" cx="156.87" cy="831.14" r="198.84" gradientTransform="translate(6.23 -77.87) scale(0.37 0.22)" xlink:href="#radial-gradient"/><radialGradient id="radial-gradient-6" cx="286.65" cy="195.59" r="55.75" gradientTransform="translate(-70.97 -72.18) scale(0.38 0.62)" xlink:href="#radial-gradient-2"/><clipPath id="clip-path-4"><ellipse class="cls-2" cx="58.29" cy="40.91" rx="35.67" ry="34.13"/></clipPath><linearGradient id="linear-gradient-3" x1="269.8" y1="1299.04" x2="311.37" y2="1299.04" gradientTransform="translate(-253.04 -1261.5)" gradientUnits="userSpaceOnUse"><stop offset="0"/><stop offset="1" stop-opacity="0"/></linearGradient><linearGradient id="linear-gradient-4" x1="96.63" y1="1585.63" x2="138.2" y2="1585.63" gradientTransform="translate(-60.92 -1519.07)" xlink:href="#linear-gradient-3"/><radialGradient id="radial-gradient-7" cx="119.28" cy="65.5" r="38.41" gradientTransform="translate(-53.7 -28.7) scale(0.58 1.17)" xlink:href="#radial-gradient"/><radialGradient id="radial-gradient-8" cx="20.65" cy="164.67" r="38.41" gradientTransform="translate(25.04 -116.21) scale(0.58 1.17)" xlink:href="#radial-gradient"/><radialGradient id="radial-gradient-9" cx="261.73" cy="75.42" r="55.75" gradientTransform="translate(-77.14 -1.66) scale(0.52 0.58)" gradientUnits="userSpaceOnUse"><stop offset="0.34" stop-color="#fff"/><stop offset="1" stop-color="#fff" stop-opacity="0"/></radialGradient><radialGradient id="radial-gradient-10" cx="71.81" cy="49.98" r="38.41" gradientTransform="matrix(1, 0, 0, 1, 0, 0)" xlink:href="#radial-gradient"/><radialGradient id="radial-gradient-11" cx="204.74" cy="505.5" r="198.84" gradientTransform="translate(-44.34 -67.55) scale(0.29 0.17)" xlink:href="#radial-gradient"/><clipPath id="clip-path-5"><path class="cls-2" d="M42.25,3.5A38.75,38.75,0,0,0,3.79,37.55c2-6,8.69-11.47,17.46-13.53a27.62,27.62,0,0,1,15.59.71c4.47,1.59,6.85,2.55,9.81,3,11.93,1.81,22.65-3.27,24.4-11.41A38.65,38.65,0,0,0,42.25,3.5Z"/></clipPath><radialGradient id="radial-gradient-12" cx="690.5" cy="2236.31" r="198.84" gradientTransform="translate(-45.05 -126.69) scale(0.16 0.07)" xlink:href="#radial-gradient"/><radialGradient id="radial-gradient-13" cx="653.34" cy="1070.39" r="198.84" gradientTransform="translate(-91.22 -61.49) scale(0.18 0.08)" xlink:href="#radial-gradient"/><radialGradient id="radial-gradient-14" cx="33.18" cy="155.96" r="55.75" gradientTransform="translate(-7.26 -51.83) scale(0.87 0.36)" xlink:href="#radial-gradient-2"/><radialGradient id="radial-gradient-15" cx="193.92" cy="112.5" r="44.51" gradientTransform="translate(-52.71 -62.75) scale(0.54 0.56)" xlink:href="#radial-gradient-2"/><clipPath id="clip-path-6"><path class="cls-2" d="M70.88,15.18l0.8,0.77-0.74,8.54s-3.19,9.94-28.19,9.94S4.88,39.3,4.88,39.3l-1.13.5L3.63,37.74,4.19,34s5.94-14,20.31-14.67S70.88,15.18,70.88,15.18Z"/></clipPath><clipPath id="clip-path-7"><polygon class="cls-2" points="44.05 26.92 49.37 28.21 72.33 67.1 70.53 70.17 44.3 71.2 29.66 30.03 44.05 26.92"/></clipPath></defs><title>The Great Wave</title><g class="cls-3"><g id="_-" data-name="-"><circle class="cls-4" cx="42.25" cy="42.25" r="38.75"/><path class="cls-4" d="M63.57,74.63a37.53,37.53,0,0,1-5.51.41c-19.7,0-35.67-15.28-35.67-34.13a32.88,32.88,0,0,1,5.16-17.69"/><path class="cls-4" d="M71.73,67.42q-1.21.12-2.46,0.12A25.4,25.4,0,0,1,48.22,27.93"/><path class="cls-4" d="M3.78,37.59c2-6,8.69-11.51,17.47-13.56a27.63,27.63,0,0,1,15.59.71c4.47,1.59,6.85,2.55,9.81,3,11.93,1.81,22.66-3.27,24.41-11.41"/><path d="M98.78,28.09H92.22V9.6H88.59V3.77h14V9.6H98.78V28.09Z"/><path d="M119.87,28.09H113.3V18.31h-3.13v9.78H103.6V3.77h6.57v8.6h3.13V3.77h6.57V28.09Z"/><path d="M121.34,28.09V3.77h12.2V9.49H127.9V13H133v5.5H127.9v3.72h5.64v5.84h-12.2Z"/><path d="M98.75,40.4h9.17v1q0,7-2.09,10.11a7.63,7.63,0,0,1-6.76,3.37,8.17,8.17,0,0,1-6.9-3.31q-2.49-3.34-2.49-9.17t2.5-9.31A8,8,0,0,1,99,29.71q5.76,0,8.36,6L101,38.05a3.7,3.7,0,0,0-.65-1.82,1.56,1.56,0,0,0-1.28-.67q-2.71,0-2.71,7.45a12.85,12.85,0,0,0,.6,4.6A2,2,0,0,0,98.89,49a1.82,1.82,0,0,0,.94-0.25,2.15,2.15,0,0,0,.72-0.71A3.78,3.78,0,0,0,101,47a6,6,0,0,0,.17-1.46H98.75V40.4Z"/><path d="M126.72,54.46h-7.1l-3.24-8.66q0-.22-0.17-0.58l-0.29-.87L116,46v8.5h-6.54V30.15h6.72q4.44,0,6.65,1.75a7.67,7.67,0,0,1,2.8,6.36,6.11,6.11,0,0,1-3.76,6.09ZM116,41.41h0.44a2.4,2.4,0,0,0,1.89-.87,3.23,3.23,0,0,0,.76-2.2q0-2.72-2.85-2.72H116v5.8Z"/><path d="M128.25,54.46V30.15h12.2v5.72h-5.64v3.54h5.06v5.5h-5.06v3.72h5.64v5.84h-12.2Z"/><path d="M160.12,54.46h-6.79l-0.49-3.09h-4.43l-0.54,3.09H141.1l5.84-24.31h8Zm-8-8.3-0.43-2.83a2.74,2.74,0,0,1-.06-0.43q0-.35-0.33-2.74c0-.18,0-0.42-0.08-0.73s-0.07-.7-0.13-1.17l-0.2-2.3c0,0.22,0,.47-0.09.74l-0.12.9q-0.11,1-.16,1.35t-0.06.46L150,42.35l-0.66,3.81h2.77Z"/><path d="M168.58,54.46H162V36h-3.62V30.15h14V36h-3.76V54.46Z"/><path d="M112.43,80.84H106.1l-1.51-8.52q-0.44-2.47-.66-4.28-0.11-.9-0.19-1.5t-0.11-.91q-0.08.65-.24,2.41-0.08.9-.19,1.89T102.94,72l-1.24,8.82H95.3L89.88,56.52h6.49l1.07,6.69q0.61,4,.85,6.28l0.22,2.22,0.2-1.91q0.33-3.34.85-6.35l1.23-6.95h5.65l1.1,5.84q0.79,4.08,1.37,9.65,0.17-2.5.38-4.44t0.46-3.51l1.2-7.54h6.41Z"/><path d="M133.35,80.84h-6.79l-0.49-3.09h-4.43l-0.54,3.09h-6.79l5.84-24.32h8Zm-8-8.3-0.43-2.83a2.77,2.77,0,0,1-.06-0.43q0-.35-0.33-2.74,0-.27-0.08-0.73t-0.13-1.17l-0.2-2.3q0,0.33-.09.74l-0.12.9q-0.11,1-.16,1.35t-0.06.46l-0.46,2.95-0.66,3.81h2.77Z"/><path d="M142.28,80.84h-6.69L130,56.52h6.9l1.2,6.95q0.68,4,1.09,8.91,0.17-2.19.43-4.09t0.6-3.72l1.56-8h7.13Z"/><path d="M150,80.84V56.52h12.2v5.72h-5.64v3.54h5.06v5.5h-5.06V75h5.64v5.84H150Z"/><circle class="cls-1" cx="42.25" cy="42.25" r="38.75"/><g class="cls-5"><rect class="cls-6" x="-0.76" y="-2.15" width="90.11" height="95.14"/><ellipse class="cls-7" cx="57.12" cy="70.39" rx="55.33" ry="22"/><circle class="cls-8" cx="48.41" cy="16.83" r="37.75"/></g><g class="cls-9"><g class="cls-10"><rect class="cls-11" x="-6.76" y="-2.15" width="90.11" height="95.14"/><rect class="cls-12" x="-4.29" y="19.74" width="39.89" height="36.62" transform="translate(53.7 22.39) rotate(90)"/><rect class="cls-13" x="16.98" y="58.79" width="54.18" height="36.62" transform="translate(38.48 165.73) rotate(-146.64)"/><ellipse class="cls-14" cx="12.3" cy="10.97" rx="69.95" ry="30.28" transform="translate(-2.27 3.27) rotate(-13.89)"/><ellipse class="cls-15" cx="-7.68" cy="63.32" rx="27.38" ry="56.94" transform="translate(-15.43 0.01) rotate(-13.89)"/><ellipse class="cls-16" cx="64.41" cy="102.6" rx="73.74" ry="43.18" transform="translate(-25.53 21.44) rotate(-15.82)"/><ellipse class="cls-17" cx="36.55" cy="48.72" rx="20.91" ry="34.46" transform="translate(-15.64 17.32) rotate(-22.09)"/><g class="cls-18"><rect class="cls-19" x="18.31" y="-6.55" width="89.99" height="89.69"/><rect class="cls-20" x="16.76" y="11.98" width="41.57" height="51.11" transform="translate(75.09 -0.01) rotate(90)"/><rect class="cls-21" x="35.7" y="41.01" width="41.57" height="51.11" transform="translate(49.36 153.58) rotate(-135)"/><ellipse class="cls-22" cx="15.69" cy="47.85" rx="22.35" ry="44.89" transform="translate(-10.72 4.98) rotate(-13.48)"/><ellipse class="cls-23" cx="37.05" cy="76.24" rx="22.35" ry="44.89" transform="translate(-43.06 48.53) rotate(-45)"/></g><ellipse class="cls-24" cx="59.45" cy="42.02" rx="29.09" ry="32.29"/><circle class="cls-25" cx="71.81" cy="49.98" r="38.41"/><ellipse class="cls-26" cx="14.58" cy="19.52" rx="57.23" ry="34.25" transform="translate(-7.04 8.3) rotate(-25.81)"/></g><ellipse class="cls-27" cx="58.06" cy="40.91" rx="35.67" ry="34.13"/></g><g class="cls-28"><rect class="cls-29" x="0.14" y="-6.41" width="82.67" height="53.67"/><ellipse class="cls-30" cx="68.74" cy="28.93" rx="32.77" ry="13.84" transform="translate(-5.26 38.24) rotate(-30)"/><ellipse class="cls-31" cx="24.73" cy="28.93" rx="35.29" ry="16.8" transform="translate(-4.4 4.43) rotate(-9.41)"/><ellipse class="cls-32" cx="21.61" cy="4.85" rx="48.52" ry="20.26" transform="translate(-0.54 4.49) rotate(-11.71)"/><ellipse class="cls-33" cx="51.75" cy="0.71" rx="23.98" ry="25.11" transform="translate(0.93 10.52) rotate(-11.71)"/></g><circle class="cls-27" cx="42.25" cy="42.25" r="38.75"/><g class="cls-34"><path class="cls-27" d="M3.75,37.67c2-6.07,8.68-11.58,17.5-13.64a27.63,27.63,0,0,1,15.59.71c4.47,1.59,6.85,2.55,9.81,3,12.25,1.86,23.24-3.55,24.53-12.07"/></g><g class="cls-35"><circle class="cls-27" cx="69.27" cy="42.14" r="25.4"/></g><circle class="cls-2" cx="42.25" cy="42.25" r="38.75"/><circle class="cls-2" cx="42.25" cy="42.25" r="38.75"/><path class="cls-2" d="M63.57,74.63a37.53,37.53,0,0,1-5.51.41c-19.7,0-35.67-15.28-35.67-34.13a32.88,32.88,0,0,1,5.16-17.69"/><path class="cls-2" d="M71.73,67.42q-1.21.12-2.46,0.12A25.4,25.4,0,0,1,48.22,27.93"/><path class="cls-2" d="M3.78,37.59c2-6,8.69-11.51,17.47-13.56a27.63,27.63,0,0,1,15.59.71c4.47,1.59,6.85,2.55,9.81,3,11.93,1.81,22.66-3.27,24.41-11.41"/><circle class="cls-36" cx="42.25" cy="42.25" r="38.75"/><path class="cls-36" d="M63.57,74.63a37.53,37.53,0,0,1-5.51.41c-19.7,0-35.67-15.28-35.67-34.13a32.88,32.88,0,0,1,5.16-17.69"/><path class="cls-36" d="M71.73,67.42q-1.21.12-2.46,0.12A25.4,25.4,0,0,1,48.22,27.93"/><path class="cls-36" d="M3.78,37.59c2-6,8.69-11.51,17.47-13.56a27.63,27.63,0,0,1,15.59.71c4.47,1.59,6.85,2.55,9.81,3,11.93,1.81,22.66-3.27,24.41-11.41"/></g></g></svg>