<svg xmlns="http://www.w3.org/2000/svg" xmlns:xlink="http://www.w3.org/1999/xlink" viewBox="0 0 84.51 84.51"><defs><style>.cls-1{fill:#eeddc6;}.cls-2,.cls-26{fill:none;}.cls-3{isolation:isolate;}.cls-4{clip-path:url(#clip-path);}.cls-5{fill:#d6b99a;}.cls-13,.cls-14,.cls-15,.cls-21,.cls-22,.cls-23,.cls-25,.cls-29,.cls-6{opacity:0.5;}.cls-11,.cls-12,.cls-13,.cls-14,.cls-15,.cls-16,.cls-19,.cls-20,.cls-21,.cls-22,.cls-23,.cls-24,.cls-25,.cls-29,.cls-30,.cls-31,.cls-32,.cls-6,.cls-7{mix-blend-mode:overlay;}.cls-6{fill:url(#radial-gradient);}.cls-7{fill:url(#radial-gradient-2);}.cls-8{clip-path:url(#clip-path-2);}.cls-9{clip-path:url(#clip-path-3);}.cls-10{fill:#3dadcd;}.cls-11{fill:url(#linear-gradient);}.cls-12{fill:url(#linear-gradient-2);}.cls-13{fill:url(#radial-gradient-3);}.cls-14{fill:url(#radial-gradient-4);}.cls-15{fill:url(#radial-gradient-5);}.cls-16,.cls-19,.cls-20,.cls-32{opacity:0.9;}.cls-16{fill:url(#radial-gradient-6);}.cls-17{clip-path:url(#clip-path-4);}.cls-18{fill:#3eaecc;}.cls-19{fill:url(#linear-gradient-3);}.cls-20{fill:url(#linear-gradient-4);}.cls-21{fill:url(#radial-gradient-7);}.cls-22{fill:url(#radial-gradient-8);}.cls-23{fill:url(#radial-gradient-9);}.cls-24{fill:url(#radial-gradient-10);}.cls-25{fill:url(#radial-gradient-11);}.cls-26{stroke:#fff;stroke-miterlimit:10;stroke-width:2px;mix-blend-mode:multiply;}.cls-27{clip-path:url(#clip-path-5);}.cls-28{fill:#9cd9e8;}.cls-29{fill:url(#radial-gradient-12);}.cls-30{fill:url(#radial-gradient-13);}.cls-31{opacity:0.7;fill:url(#radial-gradient-14);}.cls-32{fill:url(#radial-gradient-15);}.cls-33{clip-path:url(#clip-path-6);}.cls-34{clip-path:url(#clip-path-7);}</style><clipPath id="clip-path"><circle class="cls-1" cx="42.25" cy="42.25" r="38.75"/></clipPath><radialGradient id="radial-gradient" cx="1193.26" cy="-538.05" r="198.84" gradientTransform="translate(-274.93 129.93) scale(0.28 0.11)" gradientUnits="userSpaceOnUse"><stop offset="0"/><stop offset="0.85" stop-opacity="0"/></radialGradient><radialGradient id="radial-gradient-2" cx="48.41" cy="16.83" r="37.75" gradientUnits="userSpaceOnUse"><stop offset="0" stop-color="#fff"/><stop offset="1" stop-color="#fff" stop-opacity="0"/></radialGradient><clipPath id="clip-path-2"><circle class="cls-2" cx="42.25" cy="42.25" r="38.75"/></clipPath><clipPath id="clip-path-3"><path class="cls-2" d="M69.27,67.54a25.4,25.4,0,1,1,7.62-49.63A42.34,42.34,0,1,0,77.1,66.3,25.36,25.36,0,0,1,69.27,67.54Z"/></clipPath><linearGradient id="linear-gradient" x1="-144.32" y1="1138.1" x2="-104.44" y2="1138.1" gradientTransform="translate(140.03 -1100.05)" gradientUnits="userSpaceOnUse"><stop offset="0" stop-color="#2b3990"/><stop offset="1" stop-opacity="0"/></linearGradient><linearGradient id="linear-gradient-2" x1="-278.61" y1="1943.32" x2="-238.73" y2="1943.32" gradientTransform="translate(395.46 -1866.21) scale(1.36 1)" xlink:href="#linear-gradient"/><radialGradient id="radial-gradient-3" cx="757.61" cy="303.45" r="198.84" gradientTransform="translate(-254.22 -35.25) scale(0.35 0.15)" xlink:href="#radial-gradient"/><radialGradient id="radial-gradient-4" cx="2889.75" cy="471.88" r="198.84" gradientTransform="translate(-405.53 -71.8) scale(0.14 0.29)" xlink:href="#radial-gradient"/><radialGradient id="radial-gradient-5" cx="719.32" cy="807.56" r="198.84" gradientTransform="translate(-202.36 -72.75) scale(0.37 0.22)" xlink:href="#radial-gradient"/><radialGradient id="radial-gradient-6" cx="843.1" cy="319.55" r="55.75" gradientTransform="translate(-279.7 -148.8) scale(0.38 0.62)" xlink:href="#radial-gradient-2"/><clipPath id="clip-path-4"><ellipse class="cls-2" cx="58.29" cy="40.91" rx="35.67" ry="34.13"/></clipPath><linearGradient id="linear-gradient-3" x1="-145.67" y1="1116.2" x2="-104.1" y2="1116.2" gradientTransform="translate(162.44 -1078.66)" gradientUnits="userSpaceOnUse"><stop offset="0"/><stop offset="1" stop-opacity="0"/></linearGradient><linearGradient id="linear-gradient-4" x1="-331.81" y1="1995.74" x2="-290.24" y2="1995.74" gradientTransform="translate(367.52 -1929.17)" xlink:href="#linear-gradient-3"/><radialGradient id="radial-gradient-7" cx="366.82" cy="144.72" r="38.41" gradientTransform="translate(-197.7 -121.28) scale(0.58 1.17)" xlink:href="#radial-gradient"/><radialGradient id="radial-gradient-8" cx="226.52" cy="391.61" r="38.41" gradientTransform="translate(-94.72 -381.44) scale(0.58 1.17)" xlink:href="#radial-gradient"/><radialGradient id="radial-gradient-9" cx="535.84" cy="-9.09" r="55.75" gradientTransform="translate(-220.18 47.28) scale(0.52 0.58)" gradientUnits="userSpaceOnUse"><stop offset="0.34" stop-color="#fff"/><stop offset="1" stop-color="#fff" stop-opacity="0"/></radialGradient><radialGradient id="radial-gradient-10" cx="71.81" cy="49.98" r="38.41" gradientTransform="matrix(1, 0, 0, 1, 0, 0)" xlink:href="#radial-gradient"/><radialGradient id="radial-gradient-11" cx="1017.29" cy="769.94" r="198.84" gradientTransform="translate(-278.2 -113.1) scale(0.29 0.17)" xlink:href="#radial-gradient"/><clipPath id="clip-path-5"><path class="cls-2" d="M42.25,3.5A38.75,38.75,0,0,0,3.79,37.55c2-6,8.69-11.47,17.46-13.53a27.62,27.62,0,0,1,15.59.71c4.47,1.59,6.85,2.55,9.81,3,11.93,1.81,22.65-3.27,24.4-11.41A38.65,38.65,0,0,0,42.25,3.5Z"/></clipPath><radialGradient id="radial-gradient-12" cx="2316.51" cy="3054.49" r="198.84" gradientTransform="translate(-312.99 -183.62) scale(0.16 0.07)" xlink:href="#radial-gradient"/><radialGradient id="radial-gradient-13" cx="2124.35" cy="407.5" r="198.84" gradientTransform="translate(-352.28 -5.49) scale(0.18 0.08)" xlink:href="#radial-gradient"/><radialGradient id="radial-gradient-14" cx="97.73" cy="125.95" r="55.75" gradientTransform="translate(-63.45 -40.92) scale(0.87 0.36)" xlink:href="#radial-gradient-2"/><radialGradient id="radial-gradient-15" cx="482.4" cy="134.53" r="44.51" gradientTransform="translate(-208.1 -75.17) scale(0.54 0.56)" xlink:href="#radial-gradient-2"/><clipPath id="clip-path-6"><path class="cls-2" d="M70.88,15.18l0.8,0.77-0.74,8.54s-3.19,9.94-28.19,9.94S4.88,39.3,4.88,39.3l-1.13.5L3.63,37.74,4.19,34s5.94-14,20.31-14.67S70.88,15.18,70.88,15.18Z"/></clipPath><clipPath id="clip-path-7"><polygon class="cls-2" points="44.05 26.92 49.37 28.21 72.33 67.1 70.53 70.17 44.3 71.2 29.66 30.03 44.05 26.92"/></clipPath></defs><title>The Great Wave</title><g class="cls-3"><g id="_-" data-name="-"><circle class="cls-1" cx="42.25" cy="42.25" r="38.75"/><g class="cls-4"><rect class="cls-5" x="-0.76" y="-2.15" width="90.11" height="95.14"/><ellipse class="cls-6" cx="57.12" cy="70.39" rx="55.33" ry="22"/><circle class="cls-7" cx="48.41" cy="16.83" r="37.75"/></g><g class="cls-8"><g class="cls-9"><rect class="cls-10" x="-6.76" y="-2.15" width="90.11" height="95.14"/><rect class="cls-11" x="-4.29" y="19.74" width="39.89" height="36.62" transform="translate(53.7 22.39) rotate(90)"/><rect class="cls-12" x="16.98" y="58.79" width="54.18" height="36.62" transform="translate(38.48 165.73) rotate(-146.64)"/><ellipse class="cls-13" cx="12.3" cy="10.97" rx="69.95" ry="30.28" transform="translate(-2.27 3.27) rotate(-13.89)"/><ellipse class="cls-14" cx="-7.68" cy="63.32" rx="27.38" ry="56.94" transform="translate(-15.43 0.01) rotate(-13.89)"/><ellipse class="cls-15" cx="64.41" cy="102.6" rx="73.74" ry="43.18" transform="translate(-25.53 21.44) rotate(-15.82)"/><ellipse class="cls-16" cx="36.55" cy="48.72" rx="20.91" ry="34.46" transform="translate(-15.64 17.32) rotate(-22.09)"/><g class="cls-17"><rect class="cls-18" x="18.31" y="-6.55" width="89.99" height="89.69"/><rect class="cls-19" x="16.76" y="11.98" width="41.57" height="51.11" transform="translate(75.09 -0.01) rotate(90)"/><rect class="cls-20" x="35.7" y="41.01" width="41.57" height="51.11" transform="translate(49.36 153.58) rotate(-135)"/><ellipse class="cls-21" cx="15.69" cy="47.85" rx="22.35" ry="44.89" transform="matrix(0.97, -0.23, 0.23, 0.97, -10.72, 4.98)"/><ellipse class="cls-22" cx="37.05" cy="76.24" rx="22.35" ry="44.89" transform="translate(-43.06 48.53) rotate(-45)"/></g><ellipse class="cls-23" cx="59.45" cy="42.02" rx="29.09" ry="32.29"/><circle class="cls-24" cx="71.81" cy="49.98" r="38.41"/><ellipse class="cls-25" cx="14.58" cy="19.52" rx="57.23" ry="34.25" transform="translate(-7.04 8.3) rotate(-25.81)"/></g><ellipse class="cls-26" cx="58.06" cy="40.91" rx="35.67" ry="34.13"/></g><g class="cls-27"><rect class="cls-28" x="0.14" y="-6.41" width="82.67" height="53.67"/><ellipse class="cls-29" cx="68.74" cy="28.93" rx="32.77" ry="13.84" transform="translate(-5.26 38.24) rotate(-30)"/><ellipse class="cls-30" cx="24.73" cy="28.93" rx="35.29" ry="16.8" transform="translate(-4.4 4.43) rotate(-9.41)"/><ellipse class="cls-31" cx="21.61" cy="4.85" rx="48.52" ry="20.26" transform="matrix(0.98, -0.2, 0.2, 0.98, -0.54, 4.49)"/><ellipse class="cls-32" cx="51.75" cy="0.71" rx="23.98" ry="25.11" transform="translate(0.93 10.52) rotate(-11.71)"/></g><circle class="cls-26" cx="42.25" cy="42.25" r="38.75"/><g class="cls-33"><path class="cls-26" d="M3.75,37.67c2-6.07,8.68-11.58,17.5-13.64a27.63,27.63,0,0,1,15.59.71c4.47,1.59,6.85,2.55,9.81,3,12.25,1.86,23.24-3.55,24.53-12.07"/></g><g class="cls-34"><circle class="cls-26" cx="69.27" cy="42.14" r="25.4"/></g><circle class="cls-2" cx="42.25" cy="42.25" r="38.75"/><path d="M42.25,84.51A42.25,42.25,0,1,1,84.51,42.25,42.3,42.3,0,0,1,42.25,84.51ZM42.25,7A35.25,35.25,0,1,0,77.51,42.25,35.29,35.29,0,0,0,42.25,7Z"/><path d="M58.06,78.53c-21.6,0-39.17-16.88-39.17-37.63a36.47,36.47,0,0,1,5.7-19.56l5.91,3.75a29.47,29.47,0,0,0-4.61,15.81c0,16.89,14.43,30.63,32.17,30.63a34.17,34.17,0,0,0,5-.37l1,6.92A41.19,41.19,0,0,1,58.06,78.53Z"/><path d="M69.27,71A28.9,28.9,0,0,1,45.32,26l5.8,3.92A21.9,21.9,0,0,0,69.27,64c0.71,0,1.42,0,2.13-.1l0.67,7C71.14,71,70.2,71,69.27,71Z"/><path d="M7.1,38.7L0.46,36.48c2.46-7.37,10.31-13.59,20-15.86A31.09,31.09,0,0,1,38,21.44l1.88,0.67a38.49,38.49,0,0,0,7.29,2.16c9.93,1.5,19.11-2.39,20.46-8.68l6.84,1.47c-2.15,10-14.6,16.22-28.35,14.14a43.75,43.75,0,0,1-8.6-2.5L35.67,28a24,24,0,0,0-13.56-.61C14.79,29.14,8.78,33.66,7.1,38.7Z"/></g></g></svg>
